<svg width="28" height="25" viewBox="0 0 28 25" fill="none" xmlns="http://www.w3.org/2000/svg">
<path d="M5.79415 1.59066C5.79415 1.44744 5.76918 1.30561 5.72067 1.17328C5.67215 1.04096 5.60104 0.920725 5.5114 0.819448C5.42176 0.71817 5.31534 0.637833 5.19821 0.583022C5.08109 0.528211 4.95556 0.5 4.82878 0.5C4.70201 0.5 4.57647 0.528211 4.45935 0.583022C4.34223 0.637833 4.23581 0.71817 4.14616 0.819448C4.05652 0.920725 3.98541 1.04096 3.9369 1.17328C3.88838 1.30561 3.86341 1.44744 3.86341 1.59066V20.7733L1.65239 18.2713C1.47108 18.0661 1.22506 17.9507 0.968435 17.9504C0.711811 17.9502 0.465611 18.0651 0.283994 18.27C0.102377 18.4748 0.000221683 18.7527 3.60371e-07 19.0427C-0.000220962 19.3326 0.10151 19.6108 0.282814 19.816L4.14488 24.1766L4.15845 24.1919C4.33973 24.3917 4.58358 24.5025 4.83682 24.5C5.09006 24.4975 5.33216 24.3819 5.51032 24.1786L9.37239 19.8153C9.55369 19.6107 9.65564 19.3332 9.65581 19.0437C9.65597 18.7542 9.55434 18.4765 9.37327 18.2716C9.19221 18.0668 8.94653 17.9516 8.69029 17.9514C8.43406 17.9512 8.18825 18.0661 8.00695 18.2706L5.79415 20.7726V1.59066ZM13.5183 2.68133C13.2623 2.68133 13.0167 2.56642 12.8357 2.36188C12.6546 2.15734 12.5529 1.87993 12.5529 1.59066C12.5529 1.3014 12.6546 1.02399 12.8357 0.819448C13.0167 0.614909 13.2623 0.5 13.5183 0.5H15.4484C15.7045 0.5 15.95 0.614909 16.1311 0.819448C16.3121 1.02399 16.4138 1.3014 16.4138 1.59066C16.4138 1.87993 16.3121 2.15734 16.1311 2.36188C15.95 2.56642 15.7045 2.68133 15.4484 2.68133H13.5183ZM13.5183 9.22598C13.2623 9.22598 13.0167 9.11107 12.8357 8.90653C12.6546 8.70199 12.5529 8.42458 12.5529 8.13531C12.5529 7.84605 12.6546 7.56864 12.8357 7.3641C13.0167 7.15956 13.2623 7.04465 13.5183 7.04465H19.3111C19.5671 7.04465 19.8127 7.15956 19.9937 7.3641C20.1747 7.56864 20.2765 7.84605 20.2765 8.13531C20.2765 8.42458 20.1747 8.70199 19.9937 8.90653C19.8127 9.11107 19.5671 9.22598 19.3111 9.22598H13.5183ZM13.5183 15.7706C13.3915 15.7706 13.266 15.7424 13.1489 15.6876C13.0317 15.6328 12.9253 15.5525 12.8357 15.4512C12.746 15.3499 12.6749 15.2297 12.6264 15.0973C12.5779 14.965 12.5529 14.8232 12.5529 14.68C12.5529 14.5367 12.5779 14.3949 12.6264 14.2626C12.6749 14.1303 12.746 14.01 12.8357 13.9087C12.9253 13.8075 13.0317 13.7271 13.1489 13.6723C13.266 13.6175 13.3915 13.5893 13.5183 13.5893H23.1726C23.2993 13.5893 23.4249 13.6175 23.542 13.6723C23.6591 13.7271 23.7655 13.8075 23.8552 13.9087C23.9448 14.01 24.0159 14.1303 24.0644 14.2626C24.113 14.3949 24.1379 14.5367 24.1379 14.68C24.1379 14.8232 24.113 14.965 24.0644 15.0973C24.0159 15.2297 23.9448 15.3499 23.8552 15.4512C23.7655 15.5525 23.6591 15.6328 23.542 15.6876C23.4249 15.7424 23.2993 15.7706 23.1726 15.7706H13.5183ZM12.5529 21.2246C12.5529 21.5139 12.6546 21.7913 12.8357 21.9958C13.0167 22.2004 13.2623 22.3153 13.5183 22.3153H27.0346C27.2907 22.3153 27.5362 22.2004 27.7173 21.9958C27.8983 21.7913 28 21.5139 28 21.2246C28 20.9354 27.8983 20.6579 27.7173 20.4534C27.5362 20.2489 27.2907 20.1339 27.0346 20.1339H13.5177C13.3909 20.1339 13.2653 20.1622 13.1481 20.217C13.031 20.2719 12.9245 20.3523 12.8349 20.4536C12.7452 20.555 12.6741 20.6753 12.6256 20.8077C12.5772 20.9401 12.5522 21.082 12.5523 21.2253L12.5529 21.2246Z" fill="#2F2F2F"/>
</svg>
